<svg id="icons8-key" xmlns="http://www.w3.org/2000/svg" width="33.202" height="33.202" viewBox="0 0 33.202 33.202">
  <path id="icons8-key-2" data-name="icons8-key" d="M21.432,1A12.8,12.8,0,0,0,8.662,13.77a11.373,11.373,0,0,0,.459,2.843L1,24.735V34.2H11.216V31.648H13.77V29.094h1.806l3.013-3.013a11.373,11.373,0,0,0,2.843.459,12.77,12.77,0,0,0,0-25.54Zm0,2.554a10.216,10.216,0,0,1,0,20.432,10.306,10.306,0,0,1-2.933-.479l-.718-.219L14.518,26.54h-3.3v2.554H8.662v2.554H3.554V25.792l8.36-8.37L11.7,16.7a10.306,10.306,0,0,1-.479-2.933A10.2,10.2,0,0,1,21.432,3.554Zm2.554,5.108a2.554,2.554,0,1,0,2.554,2.554A2.559,2.559,0,0,0,23.986,8.662Z" transform="translate(-1 -1)" fill="#fff"/>
</svg>
